<?xml version="1.0" encoding="utf-8"?>
<!-- Generator: Adobe Illustrator 16.0.0, SVG Export Plug-In . SVG Version: 6.00 Build 0)  -->
<!DOCTYPE svg PUBLIC "-//W3C//DTD SVG 1.1//EN" "http://www.w3.org/Graphics/SVG/1.1/DTD/svg11.dtd">
<svg version="1.1" xmlns="http://www.w3.org/2000/svg" xmlns:xlink="http://www.w3.org/1999/xlink" x="0px" y="0px" width="1920px"
	 height="1080px" viewBox="0 0 1920 1080" enable-background="new 0 0 1920 1080" xml:space="preserve">
<g id="Layer_1">
	<path fill="#FFFFFF" d="M51.222,91.51c-16.569,0-30-13.186-30-29.755c0-16.568,13.431-29.754,30-29.754h106
		c16.568,0,30,13.186,30,29.754c0,16.569-13.432,29.877-30,29.877L51.222,91.51z"/>
</g>
<g id="Layer_2" display="none">
	<path display="inline" fill="#FFFFFF" d="M49.525,84.33c-12.41,0-22.47-9.756-22.47-22.166C27.055,49.755,37.115,40,49.525,40
		h107.394c12.41,0,22.47,9.755,22.47,22.164c0,12.41-10.06,22.318-22.47,22.318L49.525,84.33z"/>
</g>
<g id="Layer_5" display="none">
</g>
<g id="Layer_4" display="none">
	<ellipse display="inline" fill="#FFFFFF" cx="50.064" cy="61.771" rx="28.509" ry="29.843"/>
</g>
</svg>
