<?xml version="1.0" encoding="utf-8"?>
<!-- Generator: Adobe Illustrator 16.0.0, SVG Export Plug-In . SVG Version: 6.00 Build 0)  -->
<!DOCTYPE svg PUBLIC "-//W3C//DTD SVG 1.1//EN" "http://www.w3.org/Graphics/SVG/1.1/DTD/svg11.dtd">
<svg version="1.1" xmlns="http://www.w3.org/2000/svg" xmlns:xlink="http://www.w3.org/1999/xlink" x="0px" y="0px" width="1920px"
	 height="1080px" viewBox="0 0 1920 1080" enable-background="new 0 0 1920 1080" xml:space="preserve">
<g id="Layer_1" display="none">
	<path display="inline" fill="#FFFFFF" stroke="#000000" stroke-width="3" stroke-miterlimit="10" d="M51.222,91.51
		c-16.569,0-30-13.436-30-30.005c0-16.568,13.431-30.004,30-30.004h106c16.568,0,30,13.436,30,30.004
		c0,16.569-13.432,30.002-30,30.002L51.222,91.51z"/>
</g>
<g id="Layer_2" display="none">
	<path display="inline" fill="#FFFFFF" stroke="#000000" stroke-width="3" stroke-miterlimit="10" d="M49.525,84.33
		c-12.41,0-22.47-10.006-22.47-22.416c0-12.409,10.06-22.414,22.47-22.414h107.394c12.41,0,22.47,10.005,22.47,22.414
		c0,12.41-10.06,22.443-22.47,22.443L49.525,84.33z"/>
</g>
<g id="Layer_5" display="none">
</g>
<g id="Layer_4">
	<ellipse fill="#FFFFFF" cx="50.064" cy="61.771" rx="28.509" ry="29.843"/>
</g>
</svg>
