<?xml version="1.0" encoding="utf-8"?>
<!-- Generator: Adobe Illustrator 16.0.0, SVG Export Plug-In . SVG Version: 6.00 Build 0)  -->
<!DOCTYPE svg PUBLIC "-//W3C//DTD SVG 1.1//EN" "http://www.w3.org/Graphics/SVG/1.1/DTD/svg11.dtd">
<svg version="1.1" id="Layer_1" xmlns="http://www.w3.org/2000/svg" xmlns:xlink="http://www.w3.org/1999/xlink" x="0px" y="0px"
	 width="20px" height="20px" viewBox="0 0 20 20" enable-background="new 0 0 20 20" xml:space="preserve">
<path fill="#FFFFFF" d="M15.95,10.78C15.98,10.53,16,10.27,16,10s-0.02-0.53-0.061-0.78l1.69-1.32c0.15-0.12,0.19-0.34,0.101-0.51
	L16.13,4.62c-0.1-0.18-0.31-0.24-0.489-0.18l-1.99,0.8c-0.42-0.32-0.86-0.58-1.351-0.78L12,2.34C11.97,2.14,11.8,2,11.6,2H8.4
	C8.2,2,8.04,2.14,8.01,2.34l-0.3,2.12c-0.49,0.2-0.94,0.47-1.35,0.78l-1.99-0.8c-0.18-0.07-0.39,0-0.49,0.18l-1.6,2.77
	C2.18,7.57,2.22,7.78,2.38,7.9l1.69,1.32C4.03,9.47,4,9.74,4,10s0.02,0.53,0.06,0.78L2.37,12.1c-0.15,0.12-0.19,0.34-0.1,0.51
	l1.6,2.771c0.1,0.181,0.31,0.24,0.49,0.181l1.99-0.801c0.42,0.32,0.86,0.58,1.35,0.78L8,17.66C8.04,17.859,8.2,18,8.4,18h3.2
	c0.2,0,0.37-0.141,0.391-0.34l0.3-2.12c0.49-0.2,0.94-0.47,1.351-0.78l1.989,0.801c0.181,0.069,0.39,0,0.49-0.181l1.6-2.771
	c0.101-0.18,0.061-0.39-0.1-0.51L15.95,10.78z M10,13c-1.65,0-3-1.35-3-3c0-1.65,1.35-3,3-3c1.65,0,3,1.35,3,3
	C13,11.65,11.65,13,10,13z"/>
</svg>
